<?xml version="1.0" encoding="UTF-8" standalone="no"?>
<svg
   id="Layer_1"
   data-name="Layer 1"
   viewBox="0 0 122.88 122.88"
   version="1.1"
   sodipodi:docname="rss-square-color-icon.svg"
   xml:space="preserve"
   inkscape:version="1.4 (86a8ad7, 2024-10-11)"
   xmlns:inkscape="http://www.inkscape.org/namespaces/inkscape"
   xmlns:sodipodi="http://sodipodi.sourceforge.net/DTD/sodipodi-0.dtd"
   xmlns="http://www.w3.org/2000/svg"
   xmlns:svg="http://www.w3.org/2000/svg"><sodipodi:namedview
     id="namedview4"
     pagecolor="#ffffff"
     bordercolor="#000000"
     borderopacity="0.25"
     inkscape:showpageshadow="2"
     inkscape:pageopacity="0.0"
     inkscape:pagecheckerboard="0"
     inkscape:deskcolor="#d1d1d1"
     inkscape:zoom="6.567383"
     inkscape:cx="61.439999"
     inkscape:cy="61.439999"
     inkscape:window-width="1920"
     inkscape:window-height="1009"
     inkscape:window-x="-8"
     inkscape:window-y="-8"
     inkscape:window-maximized="1"
     inkscape:current-layer="Layer_1" /><defs
     id="defs1"><style
       id="style1">.cls-1{fill:#f26522;}.cls-1,.cls-2{fill-rule:evenodd;}.cls-2{fill:#fff;}</style></defs><title
     id="title1">rss-square-color</title><path
     class="cls-1"
     d="M25.2,0H97.68a25.27,25.27,0,0,1,25.2,25.2V97.68a25.27,25.27,0,0,1-25.2,25.2H25.2A25.27,25.27,0,0,1,0,97.68V25.2A25.27,25.27,0,0,1,25.2,0Z"
     id="path1"
     style="fill:#22f24f;fill-opacity:1" /><path
     class="cls-2"
     d="M30.38,30.35V42.27A50.29,50.29,0,0,1,80.57,92.52h12A62.23,62.23,0,0,0,30.38,30.36Z"
     id="path2" /><path
     class="cls-2"
     d="M30.36,51.48V63.39A29.12,29.12,0,0,1,59.43,92.53h12a41.09,41.09,0,0,0-41-41.05Z"
     id="path3" /><path
     class="cls-2"
     d="M38.63,75.94a8.26,8.26,0,1,0,8.29,8.26,8.29,8.29,0,0,0-8.29-8.26Z"
     id="path4" /><path
     style="fill:#6dba83;fill-opacity:1;stroke-width:0.152268"
     d="M 21.968387,122.57188 C 16.55141,121.82851 11.598197,119.40501 7.7141632,115.59759 3.953589,111.9112 1.5688138,107.49161 0.50459316,102.23645 l -0.35232551,-1.7398 V 61.439999 22.383345 L 0.50459316,20.643547 C 1.5637568,15.413356 3.9413595,10.985152 7.6376528,7.3584684 11.220578,3.843018 15.628295,1.5202295 20.643547,0.50459316 l 1.739798,-0.35232551 h 38.904386 c 42.366209,0 39.781049,-0.0520487 43.091749,0.86759205 4.01473,1.1152066 7.53064,3.1436671 10.6367,6.1367201 4.2307,4.0767662 6.80045,9.1578612 7.55932,14.9468392 0.34407,2.624716 0.34407,76.048444 0,78.673161 -0.41782,3.18728 -1.16051,5.53426 -2.68759,8.49298 -3.50368,6.78843 -10.02711,11.5803 -17.94472,13.18154 -1.20102,0.24289 -4.07527,0.26399 -39.894121,0.29287 -31.476334,0.0254 -38.873134,-0.006 -40.080682,-0.17209 z M 71.439278,90.61985 C 70.954175,80.504923 66.944327,71.2285 59.918884,63.968461 52.532758,56.335693 42.972868,52.025411 32.146382,51.446631 l -1.921253,-0.10271 v 6.037779 6.037778 l 0.342603,0.0013 c 0.188431,7.17e-4 1.130587,0.06975 2.09368,0.153399 13.840556,1.20217 24.77721,11.762019 26.487111,25.574539 0.08785,0.709654 0.159728,1.788851 0.159728,2.398215 v 1.107935 h 6.114313 6.114312 z m 21.21497,1.007211 C 92.652608,88.903591 92.052969,83.395269 91.425582,80.34043 88.957858,68.32473 83.421768,57.83475 74.991978,49.201446 69.878192,43.964203 64.960648,40.323835 58.623047,37.083831 50.533698,32.948272 41.806689,30.709628 32.242676,30.316767 l -1.865279,-0.07662 v 6.059834 6.059834 l 2.474349,0.09438 c 10.558992,0.402753 21.187334,4.56831 29.654126,11.622316 10.734832,8.943595 17.331665,22.292148 17.917795,36.256278 l 0.09747,2.322082 h 6.066868 6.066867 z m -52.196613,0.708506 c 3.921833,-0.811847 6.717962,-4.521661 6.473138,-8.588357 -0.367856,-6.110372 -6.781074,-9.723646 -12.213748,-6.881357 -1.857391,0.971758 -3.567147,3.142113 -4.106477,5.21274 -0.29857,1.146287 -0.29857,3.104553 0,4.25084 0.740665,2.843602 3.199894,5.263458 6.051263,5.95438 1.00813,0.244281 2.750972,0.268044 3.795824,0.05175 z"
     id="path5" /></svg>
