<svg width="253" height="57" viewBox="0 0 253 57" fill="none" xmlns="http://www.w3.org/2000/svg">
<path d="M53.3564 45.4072C53.7308 45.6917 53.9854 45.9613 54.1201 46.2158C54.2923 46.5527 54.3784 46.9533 54.3784 47.4175V51.4492C54.3784 51.876 54.502 52.2241 54.749 52.4937C54.9961 52.7707 55.3031 52.9279 55.6699 52.9653C55.902 52.9878 56.0555 53.0327 56.1304 53.1001C56.2277 53.1899 56.2764 53.3022 56.2764 53.437C56.2764 53.5793 56.2277 53.6916 56.1304 53.7739C56.033 53.8638 55.8908 53.9087 55.7036 53.9087C55.1121 53.9087 54.618 53.7215 54.2212 53.3472C53.6896 52.8306 53.4238 52.2017 53.4238 51.4604V47.4175C53.4238 47.0057 53.3003 46.6613 53.0532 46.3843C52.8062 46.0998 52.4917 45.9425 52.1099 45.9126C51.9002 45.8901 51.7542 45.8377 51.6719 45.7554C51.5895 45.673 51.5483 45.557 51.5483 45.4072C51.5483 45.265 51.5895 45.1527 51.6719 45.0703C51.7542 44.988 51.9002 44.9355 52.1099 44.9131C52.4992 44.8831 52.8136 44.7297 53.0532 44.4526C53.3003 44.1681 53.4238 43.82 53.4238 43.4082V39.3652C53.4238 38.6615 53.6484 38.0775 54.0977 37.6133C54.5469 37.1416 55.0859 36.9058 55.7148 36.9058C55.8945 36.9058 56.033 36.9507 56.1304 37.0405C56.2277 37.1304 56.2764 37.2427 56.2764 37.3774C56.2764 37.5122 56.2277 37.6245 56.1304 37.7144C56.063 37.7892 55.9095 37.8379 55.6699 37.8604C55.2956 37.8978 54.9849 38.055 54.7378 38.332C54.4982 38.609 54.3784 38.9535 54.3784 39.3652V43.4082C54.3784 43.8799 54.3035 44.2617 54.1538 44.5537C54.0041 44.8382 53.7383 45.1227 53.3564 45.4072ZM77.9611 41.8921C77.9611 41.675 78.006 41.5177 78.0958 41.4204C78.1857 41.3231 78.298 41.2744 78.4327 41.2744C78.575 41.2744 78.691 41.3231 78.7809 41.4204C78.8707 41.5177 78.9156 41.6825 78.9156 41.9146V43.5317C78.9156 43.7563 78.8707 43.9173 78.7809 44.0146C78.691 44.112 78.575 44.1606 78.4327 44.1606C78.3055 44.1606 78.1969 44.1195 78.1071 44.0371C78.0247 43.9548 77.976 43.82 77.9611 43.6328C77.9161 43.1836 77.684 42.813 77.2648 42.521C76.6508 42.1017 75.8385 41.8921 74.8278 41.8921C73.7721 41.8921 72.9523 42.1055 72.3683 42.5322C71.9266 42.8542 71.7057 43.2135 71.7057 43.6104C71.7057 44.0596 71.9677 44.4339 72.4918 44.7334C72.8512 44.943 73.5325 45.104 74.5358 45.2163C75.846 45.3586 76.7557 45.5195 77.2648 45.6992C77.991 45.9613 78.5301 46.3244 78.882 46.7886C79.2413 47.2528 79.421 47.7544 79.421 48.2935C79.421 49.0946 79.0354 49.8096 78.2643 50.4385C77.4931 51.0599 76.3626 51.3706 74.8727 51.3706C73.3828 51.3706 72.1624 50.9925 71.2115 50.2363C71.2115 50.4909 71.1966 50.6556 71.1666 50.7305C71.1367 50.8053 71.0805 50.869 70.9982 50.9214C70.9233 50.9738 70.8372 51 70.7399 51C70.6051 51 70.4928 50.9513 70.403 50.854C70.3131 50.7567 70.2682 50.5957 70.2682 50.3711V48.4282C70.2682 48.2036 70.3094 48.0426 70.3917 47.9453C70.4816 47.848 70.5976 47.7993 70.7399 47.7993C70.8746 47.7993 70.9869 47.848 71.0768 47.9453C71.1741 48.0352 71.2228 48.1587 71.2228 48.3159C71.2228 48.6603 71.3089 48.9486 71.4811 49.1807C71.7431 49.54 72.1586 49.8395 72.7277 50.0791C73.3042 50.3112 74.0079 50.4272 74.839 50.4272C76.0669 50.4272 76.9803 50.1989 77.5792 49.7422C78.1782 49.2855 78.4777 48.8026 78.4777 48.2935C78.4777 47.7095 78.1744 47.2415 77.568 46.8896C76.9541 46.5378 76.0594 46.3019 74.8839 46.1821C73.7159 46.0623 72.8774 45.9051 72.3683 45.7104C71.8592 45.5158 71.4624 45.2238 71.1779 44.8345C70.8933 44.4451 70.7511 44.0259 70.7511 43.5767C70.7511 42.7681 71.1479 42.1279 71.9415 41.6562C72.7351 41.1771 73.6822 40.9375 74.7828 40.9375C76.0856 40.9375 77.145 41.2557 77.9611 41.8921ZM99.7244 42.229V41.9146C99.7244 41.6825 99.7693 41.5177 99.8591 41.4204C99.949 41.3231 100.061 41.2744 100.196 41.2744C100.338 41.2744 100.454 41.3231 100.544 41.4204C100.634 41.5177 100.679 41.6825 100.679 41.9146V44.0483C100.671 44.2804 100.623 44.4451 100.533 44.5425C100.451 44.6398 100.338 44.6885 100.196 44.6885C100.069 44.6885 99.9602 44.6473 99.8704 44.5649C99.788 44.4751 99.7393 44.3291 99.7244 44.127C99.6794 43.5954 99.3275 43.09 98.6687 42.6108C98.0173 42.1317 97.1376 41.8921 96.0295 41.8921C94.6295 41.8921 93.5663 42.3301 92.8401 43.2061C92.1138 44.082 91.7507 45.0853 91.7507 46.2158C91.7507 47.4362 92.1513 48.4432 92.9524 49.2368C93.7535 50.0304 94.7904 50.4272 96.0632 50.4272C96.7969 50.4272 97.5419 50.2925 98.2981 50.0229C99.0618 49.7534 99.7506 49.3192 100.364 48.7202C100.522 48.5705 100.66 48.4956 100.78 48.4956C100.907 48.4956 101.012 48.5405 101.094 48.6304C101.184 48.7127 101.229 48.8175 101.229 48.9448C101.229 49.2668 100.851 49.6748 100.095 50.1689C98.8746 50.9701 97.5157 51.3706 96.0183 51.3706C94.4984 51.3706 93.2481 50.8877 92.2673 49.9219C91.294 48.9486 90.8074 47.717 90.8074 46.2271C90.8074 44.7072 91.3052 43.4456 92.301 42.4424C93.3043 41.4391 94.5658 40.9375 96.0857 40.9375C97.5307 40.9375 98.7436 41.368 99.7244 42.229ZM113.626 36.9058V42.7119C114.225 42.0605 114.798 41.6038 115.345 41.3418C115.899 41.0723 116.516 40.9375 117.198 40.9375C117.931 40.9375 118.553 41.0685 119.062 41.3306C119.578 41.5851 120.009 41.9819 120.353 42.521C120.698 43.0526 120.87 43.6141 120.87 44.2056V50.0566H121.926C122.158 50.0566 122.319 50.1016 122.409 50.1914C122.506 50.2738 122.555 50.3861 122.555 50.5283C122.555 50.6631 122.506 50.7754 122.409 50.8652C122.319 50.9551 122.158 51 121.926 51H118.86C118.628 51 118.463 50.9551 118.366 50.8652C118.268 50.7754 118.22 50.6631 118.22 50.5283C118.22 50.3861 118.268 50.2738 118.366 50.1914C118.463 50.1016 118.628 50.0566 118.86 50.0566H119.915V44.2729C119.915 43.5916 119.668 43.0226 119.174 42.5659C118.688 42.1092 118.006 41.8809 117.13 41.8809C116.441 41.8809 115.854 42.0493 115.367 42.3862C115.015 42.6258 114.435 43.1911 113.626 44.082V50.0566H114.693C114.918 50.0566 115.079 50.1016 115.176 50.1914C115.273 50.2738 115.322 50.3861 115.322 50.5283C115.322 50.6631 115.273 50.7754 115.176 50.8652C115.079 50.9551 114.918 51 114.693 51H111.616C111.391 51 111.23 50.9551 111.133 50.8652C111.036 50.7754 110.987 50.6631 110.987 50.5283C110.987 50.3861 111.036 50.2738 111.133 50.1914C111.23 50.1016 111.391 50.0566 111.616 50.0566H112.683V37.8604H111.414C111.189 37.8604 111.028 37.8154 110.931 37.7256C110.834 37.6357 110.785 37.5197 110.785 37.3774C110.785 37.2427 110.834 37.1304 110.931 37.0405C111.028 36.9507 111.189 36.9058 111.414 36.9058H113.626ZM142.948 46.1597C142.948 47.5972 142.431 48.825 141.398 49.8433C140.372 50.8615 139.133 51.3706 137.681 51.3706C136.213 51.3706 134.967 50.8615 133.941 49.8433C132.915 48.8175 132.402 47.5897 132.402 46.1597C132.402 44.7222 132.915 43.4943 133.941 42.4761C134.967 41.4504 136.213 40.9375 137.681 40.9375C139.133 40.9375 140.372 41.4466 141.398 42.4648C142.431 43.4831 142.948 44.7147 142.948 46.1597ZM141.993 46.1597C141.993 44.9767 141.57 43.9697 140.724 43.1387C139.886 42.3076 138.867 41.8921 137.669 41.8921C136.472 41.8921 135.45 42.3114 134.604 43.1499C133.765 43.981 133.346 44.9842 133.346 46.1597C133.346 47.3276 133.765 48.3309 134.604 49.1694C135.45 50.008 136.472 50.4272 137.669 50.4272C138.867 50.4272 139.886 50.0117 140.724 49.1807C141.57 48.3421 141.993 47.3351 141.993 46.1597ZM163.891 46.1597C163.891 47.5972 163.375 48.825 162.341 49.8433C161.316 50.8615 160.077 51.3706 158.624 51.3706C157.157 51.3706 155.91 50.8615 154.884 49.8433C153.859 48.8175 153.346 47.5897 153.346 46.1597C153.346 44.7222 153.859 43.4943 154.884 42.4761C155.91 41.4504 157.157 40.9375 158.624 40.9375C160.077 40.9375 161.316 41.4466 162.341 42.4648C163.375 43.4831 163.891 44.7147 163.891 46.1597ZM162.937 46.1597C162.937 44.9767 162.514 43.9697 161.668 43.1387C160.829 42.3076 159.811 41.8921 158.613 41.8921C157.415 41.8921 156.393 42.3114 155.547 43.1499C154.708 43.981 154.289 44.9842 154.289 46.1597C154.289 47.3276 154.708 48.3309 155.547 49.1694C156.393 50.008 157.415 50.4272 158.613 50.4272C159.811 50.4272 160.829 50.0117 161.668 49.1807C162.514 48.3421 162.937 47.3351 162.937 46.1597ZM180.039 36.9058V50.0566H183.745C183.977 50.0566 184.142 50.1016 184.239 50.1914C184.337 50.2738 184.385 50.3861 184.385 50.5283C184.385 50.6631 184.337 50.7754 184.239 50.8652C184.142 50.9551 183.977 51 183.745 51H175.39C175.165 51 175.004 50.9551 174.907 50.8652C174.81 50.7754 174.761 50.6631 174.761 50.5283C174.761 50.3861 174.81 50.2738 174.907 50.1914C175.004 50.1016 175.165 50.0566 175.39 50.0566H179.096V37.8604H176.378C176.154 37.8604 175.989 37.8154 175.884 37.7256C175.787 37.6357 175.738 37.5197 175.738 37.3774C175.738 37.2427 175.787 37.1304 175.884 37.0405C175.981 36.9507 176.146 36.9058 176.378 36.9058H180.039ZM201.061 45.4072C200.68 45.1227 200.425 44.8532 200.298 44.5986C200.125 44.2692 200.039 43.8724 200.039 43.4082V39.3652C200.039 38.946 199.916 38.5978 199.669 38.3208C199.422 38.0438 199.115 37.8903 198.748 37.8604C198.508 37.8379 198.355 37.793 198.287 37.7256C198.19 37.6283 198.141 37.5122 198.141 37.3774C198.141 37.2427 198.186 37.1304 198.276 37.0405C198.374 36.9507 198.516 36.9058 198.703 36.9058C199.302 36.9058 199.796 37.0967 200.185 37.4785C200.717 37.9876 200.983 38.6165 200.983 39.3652V43.4082C200.983 43.82 201.106 44.1681 201.353 44.4526C201.608 44.7297 201.926 44.8831 202.308 44.9131C202.51 44.9355 202.652 44.988 202.735 45.0703C202.825 45.1527 202.869 45.265 202.869 45.4072C202.869 45.557 202.825 45.673 202.735 45.7554C202.652 45.8377 202.51 45.8901 202.308 45.9126C201.919 45.9425 201.6 46.0998 201.353 46.3843C201.106 46.6613 200.983 47.0057 200.983 47.4175V51.4604C200.983 52.1642 200.758 52.7482 200.309 53.2124C199.86 53.6841 199.324 53.9199 198.703 53.9199C198.516 53.9199 198.374 53.875 198.276 53.7852C198.186 53.6953 198.141 53.5793 198.141 53.437C198.141 53.3022 198.186 53.1899 198.276 53.1001C198.351 53.0327 198.508 52.9878 198.748 52.9653C199.122 52.9279 199.429 52.7669 199.669 52.4824C199.916 52.2054 200.039 51.861 200.039 51.4492V47.4175C200.039 46.9458 200.114 46.564 200.264 46.272C200.414 45.98 200.68 45.6917 201.061 45.4072Z" fill="#6dba83"/>
<path d="M243.455 26.4945C244.136 24.7805 245.796 23.6446 247.757 23.6446C250.327 23.6446 252.41 25.7221 252.41 28.2867C252.41 30.8513 250.327 32.9288 247.757 32.9288C245.535 32.9288 243.726 31.4874 243.267 29.4125L222.149 29.3368V48.251L217.51 48.2434H217.495L217.55 8.23409H222.205L222.149 26.3708L243.455 26.4945ZM251.657 28.2842C251.657 26.1739 249.944 24.4625 247.828 24.4625C245.712 24.4625 243.999 26.1714 243.999 28.2842C243.999 30.397 245.712 32.1059 247.828 32.1059C249.944 32.1059 251.657 30.397 251.657 28.2842Z" fill="#6dba83"/>
<path d="M222.149 48.251V48.357H217.495V48.2434H217.51L222.149 48.251Z" fill="#6dba83"/>
<path d="M203.87 33.5725H202.562L187.678 18.2023L187.604 18.1317L188.519 17.1977L197.368 17.2482C197.882 17.7682 203.363 23.3165 203.862 23.8238C203.862 24.5559 203.87 32.8127 203.87 33.5725Z" fill="#6dba83"/>
<path d="M196.721 10.1803C195.685 10.1803 188.542 10.1879 187.478 10.1879C187.478 9.2867 187.49 3.92773 187.49 3.09473L202.859 3.02405V11.5711L198.655 15.774L196.762 15.7664L196.721 10.1803Z" fill="#6dba83"/>
<path d="M186.578 4.04637V27.6683L181.68 33.0247L179.987 33.0121L179.967 9.77893C180.411 9.317 185.015 4.52345 185.466 4.05394L186.578 4.04637Z" fill="#6dba83"/>
<path d="M177.428 26.9362C177.428 27.8323 177.41 33.2872 177.408 34.1202C176.721 34.1152 172.12 34.0849 171.446 34.0798C170.863 33.5195 164.999 27.8778 164.574 27.4663L165.04 26.9438C165.901 26.9438 176.156 26.9362 177.428 26.9362Z" fill="#6dba83"/>
<path d="M175.538 10.1172V10.1626L164.88 10.1449L158.495 3.54656L159.009 3.03919L169.398 3.019L175.538 10.1172Z" fill="#6dba83"/>
<path d="M163.646 13.8278L164.647 14.6911L168.628 14.729L174.694 20.878L174.296 21.3375L164.128 21.34L164.145 26.5753L164.117 26.6056L157.073 19.9188L157.071 5.07121L158.343 5.07626L163.641 10.4983L163.646 13.8278Z" fill="#6dba83"/>
<path d="M138.771 19.6412L138.809 26.8353C138.375 27.3048 133.543 32.5426 133.107 33.0146C132.861 33.0146 131.891 33.0197 131.536 33.0222C131.541 31.6591 131.589 18.4018 131.592 17.4324L146.289 3.04929C146.91 3.04172 153.047 2.98114 154.015 2.97104C154.015 3.33453 154.012 4.3619 154.012 4.62442L138.771 19.6386V19.6412Z" fill="#6dba83"/>
<path d="M152.477 24.258L152.492 32.0882L151.889 33.0727C151.668 33.0727 151.037 33.0676 150.878 33.0676C150.112 32.2876 140.866 22.8621 140.26 22.2462C140.258 22.0064 140.248 21.0623 140.248 20.8326L141.624 19.8204L148.529 19.785L152.477 24.258Z" fill="#6dba83"/>
<path d="M138.259 3.8621L138.281 9.11758L132.504 14.7567C132.35 14.7567 131.916 14.7643 131.701 14.7668C131.698 13.6335 131.691 4.6219 131.691 3.8823L132.451 3.09221H137.917L138.259 3.8621Z" fill="#6dba83"/>
<path d="M120.572 26.9615L127.016 19.8481H128.622L128.691 29.5539L124.211 34.0369C123.519 34.0369 116.325 34.0496 115.273 34.0496C115.271 33.1913 115.248 27.8298 115.243 26.9236C115.983 26.9287 120.057 26.9564 120.572 26.9615Z" fill="#6dba83"/>
<path d="M128.039 3.0821L128.055 4.28112C127.609 4.77334 123.177 9.683 122.736 10.1702L116.198 10.1929L115.367 9.39524L115.4 3.89995L116.462 3.10229C117.111 3.09977 126.841 3.0821 128.039 3.07957V3.0821Z" fill="#6dba83"/>
<path d="M114.452 33.0171C114.148 33.0171 113.378 33.0146 113.16 33.0121L107.246 26.6182L107.228 9.96572L114.331 3.4153H114.371C114.376 5.16965 114.447 31.0583 114.452 33.0171Z" fill="#6dba83"/>
<path d="M104.187 8.95855L104.215 18.9748L96.7251 26.8883L86.9086 26.8151L86.8833 26.7898L97.579 15.8901C97.5841 14.8325 97.6094 5.21762 97.6145 4.03627C98.0275 4.03627 99.2767 4.03123 99.5479 4.0287L104.187 8.95603V8.95855Z" fill="#6dba83"/>
<path d="M104.187 32.641V32.7193C104.058 32.9061 103.513 33.7012 103.303 34.0193C102.543 34.0142 98.6154 34.0142 97.9413 34.0142C97.7234 33.8047 97.2394 33.3327 97.0646 33.161C97.0621 32.5451 97.0519 29.4908 97.0519 28.8471C97.8172 28.0747 104.124 21.7388 104.124 21.7388L104.187 21.6732V32.641Z" fill="#6dba83"/>
<path d="M96.0409 4.08171V13.949L76.9098 33.0197C76.707 33.0222 76.0482 33.0247 75.772 33.0247C75.767 31.9721 75.7239 24.0384 75.7188 23.2937C76.6513 22.3573 93.9225 5.01316 94.8424 4.09181L96.0409 4.08171Z" fill="#6dba83"/>
<path d="M72.6198 23.7557L72.6553 33.0247H71.6595L57.3478 18.9571L57.3301 17.286L65.4539 17.2406L72.6198 23.7557Z" fill="#6dba83"/>
<path d="M72.597 9.45078V21.3526H72.0345C71.5378 20.8907 66.4472 16.135 65.9429 15.6655L65.9328 4.09433H67.7572C68.1855 4.56889 72.1561 8.95855 72.597 9.45078Z" fill="#6dba83"/>
<path d="M49.4192 6.65391L49.3888 3.852L51.0688 3.8419C51.5072 4.30636 55.6805 8.7036 56.2355 9.28923C56.2431 10.9073 56.3166 31.2022 56.3216 32.7925H56.2785L49.6422 27.0624L49.4192 6.65391Z" fill="#6dba83"/>
<path d="M49.4193 6.65392L49.3736 3.85201H49.3888L49.4193 6.65392Z" fill="#6dba83"/>
<path d="M28.0632 29.9754H28.005C28.005 29.9754 11.3114 29.988 9.49208 29.988C9.42113 30.1471 9.31978 30.3414 9.2615 30.4475C8.47091 31.8257 6.67942 33.0045 4.98169 33.0045C2.46297 33.0045 0.420624 30.9675 0.420624 28.4533C0.420624 25.9392 2.46297 23.9021 4.98169 23.9021C6.47164 23.9021 7.79182 24.6165 8.62295 25.7221H8.62548C8.8586 26.0477 8.94982 26.2547 9.03091 26.4137C11.0555 26.4137 28.0632 26.4087 28.0632 26.4087V8.09526H33.0981V48.6877H28.0632V29.9754ZM32.3937 48.0162V8.98127H28.7322V48.0162H32.3937ZM8.68376 28.4533C8.68376 26.3759 6.99616 24.6897 4.91328 24.6897C2.83039 24.6897 1.14279 26.3733 1.14279 28.4533C1.14279 30.5333 2.83039 32.217 4.91328 32.217C6.99616 32.217 8.68376 30.5333 8.68376 28.4533Z" fill="#6dba83"/>
</svg>
